<?xml version="1.0" encoding="utf-8"?>
<!-- Generator: Adobe Illustrator 19.1.0, SVG Export Plug-In . SVG Version: 6.00 Build 0)  -->
<svg version="1.1" id="Layer_1" xmlns="http://www.w3.org/2000/svg" xmlns:xlink="http://www.w3.org/1999/xlink" x="0px" y="0px"
	 viewBox="0 0 325 264" style="enable-background:new 0 0 325 264;" xml:space="preserve">
<style type="text/css">
	.st0{fill:#D91F26;}
</style>
<g>
	<g>
		<g>
			<path class="st0" d="M213.3,131.5c3.8-6.8,7.1-10.2,9.8-10.6c2.6-0.2,4,2.5,4.3,8.3c0.2,5.8-0.8,13-3.2,21.7
				c5.7-3.4,9.6-7,11.9-10.8l20.3-54.9c-8.1,8.5-22.2,14-42.5,16.5c-18,2.3-38.6,2-61.6-0.8c-21.9-2.7-41.6-7-58.9-13
				c-18.1-6.4-29.6-13.1-34.4-20.4l1.8,60.7c1.9,2.9,4.2,5.8,6.9,8.7c0.1-2.5,0.2-4.6,0.3-6.4c0.7-9.5,2.3-16.5,4.6-21.4
				c2.4-4.9,4.8-5.9,7.4-3.4c2.6,2.6,4.5,8.2,5.9,16.6c1.3,8.6,1.6,17.5,0.9,26.9l-0.2,1.5c4.7,2.5,9.8,4.6,15.2,6.5
				c0.1-3.7,0.3-7.4,0.8-11.2c1.4-9.4,3.8-16.7,7.4-21.8c3.5-5.1,7.1-6.6,10.8-4.4c3.7,2.1,6.4,7.2,8,15.4
				c1.7,8.2,1.8,16.9,0.4,26.3l-0.3,2c7.9,1.1,16,1.7,24.2,1.8c0.2-1.5,0.3-2.9,0.5-4.1c1.3-9.5,4.1-17.7,8.4-24.7
				c4.3-6.9,8.8-10.6,13.5-11c4.7-0.4,8.3,2.7,10.7,9.1c2.5,6.5,3,14.4,1.7,23.9c-0.2,1.4-0.4,2.8-0.7,4.3c5.6-0.9,10.7-2,15.3-3.3
				c0.3-1.5,0.7-2.9,1.1-4.2C206.3,146.1,209.5,138.1,213.3,131.5z"/>
		</g>
		<path class="st0" d="M258.2,74.9c-3,18.4-49.9,26-104.7,17c-54.8-9-96.7-31.2-93.7-49.6c3-18.4,49.9-26,104.6-17
			C219.2,34.3,261.2,56.5,258.2,74.9z M173.7,33.1C133.3,26,99.8,31.8,97.8,45c-2,13.2,29.2,29,69.7,35.4c40.5,6.4,75,0.8,77-12.4
			C246.3,56.2,215.6,40.6,173.7,33.1z"/>
		<path class="st0" d="M236.6,78.4c-2.2,10.8-35,15-73.2,9.2c-38.3-5.7-67.5-19.2-65.3-30c2.2-10.8,35-15,73.2-9.2
			C209.5,54.2,238.8,67.6,236.6,78.4z M177.7,53.3c-28.4-4.1-52.6-1.2-54,6.5c-1.4,7.7,20.4,17.2,48.9,21.3
			c28.4,4.1,52.6,1.2,54-6.5C227.9,66.9,206.1,57.3,177.7,53.3z"/>
		<path class="st0" d="M200.4,78.8c-1.2,5.2-15.8,6.7-29.2,4.2c-15-2.8-25.9-9.4-24.9-14.6c1-5.2,14-7.7,29-4.6
			C190.2,66.8,201.4,74.1,200.4,78.8z"/>
	</g>
	<g>
		<path d="M300.6,212L300.6,212L300.6,212c-3.2-3.3-7.1-4.8-11.5-4.8c-4.2,0-7.8,1.4-10.8,4.1c-3.1-2.7-6.5-4-10.7-4
			c-3,0-5.8,0.8-8.1,2.2c-2.2-1-4.9-1.7-8.2-2.1v37.3h11.1v-21.2c0.1-1.3,0.6-2.5,1.5-3.5c0-0.1,0-0.1,0.1-0.1c1-1,2.2-1.5,3.6-1.5
			c1.4,0,2.6,0.6,3.7,1.5c1,1,1.5,2.2,1.5,3.5c0,0.1,0,0.1,0,0.1v21.1h11.1v-21.1c0,0,0-0.1,0-0.1v-0.1v-0.1c0-1.4,0.6-2.5,1.5-3.5
			v0.1c1-1,2.2-1.5,3.7-1.5c1.4,0,2.6,0.5,3.6,1.5c0.1,0,0.1,0,0.1,0.1c1,1,1.5,2.2,1.5,3.6v21.2h11.1v-21.2
			C305.3,219,303.7,215.1,300.6,212z"/>
		<path d="M235.4,228.4c0,1.4-0.5,2.5-1.5,3.5l-0.1,0.1c-1,1-2.1,1.5-3.6,1.5c-1.5,0-2.6-0.5-3.7-1.5v-0.1c-1-1-1.5-2.2-1.5-3.6
			v-21.1h-11.1v21.1c0,4.5,1.6,8.3,4.8,11.5c2.1,2.1,4.4,3.5,6.9,4.2c0.8,0.2,1.7,0.4,2.6,0.5c0.5,0.1,1,0.1,1.6,0.1h0.8
			c0.5,0,1-0.1,1.5-0.1c1-0.1,1.8-0.3,2.7-0.5c1.2-0.4,2.4-0.9,3.5-1.5c2.6,1.3,5.3,2,8.1,2.1v-37.4h-11.1V228.4z"/>
		<path d="M204.6,191.8c-1.7,0-3.1,0.7-4.4,1.9c-1.2,1.2-1.9,2.6-1.9,4.4c0,1.7,0.7,3.3,1.9,4.4c1.2,1.2,2.6,1.8,4.4,1.8
			c1.7,0,3.3-0.6,4.4-1.8c1.2-1.2,1.8-2.7,1.8-4.4c0-1.7-0.6-3.1-1.8-4.4C207.8,192.5,206.3,191.8,204.6,191.8z"/>
		<path d="M183.4,208.8c-2.2-1-4.7-1.5-7.4-1.5c-5.2,0-9.5,1.8-13.2,5.5c-3.6,3.6-5.5,8-5.5,13.1c0,5.2,1.8,9.6,5.5,13.2l0.1,0.1
			c2.1,2.1,4.4,3.6,7.1,4.5c0.4,0.1,0.8,0.3,1.2,0.3c1,0.2,2,0.4,3.1,0.5c0.5,0.1,1,0.1,1.4,0.1c0.1,0,0.3,0,0.4,0
			c0.6,0,1.1-0.1,1.8-0.1c1-0.1,2.1-0.3,3.1-0.5c1.7-0.4,3.2-1,4.7-2c2.4,1.4,5.5,2.2,9.1,2.7v-53.5l-11.2,4.1V208.8z M183.4,226.2
			c-0.1,2-0.8,3.6-2.2,5l-0.1,0.1c-1.4,1.5-3.1,2.2-5.2,2.2c-2.1,0-3.8-0.7-5.3-2.2v-0.1c-1.4-1.4-2.2-3.2-2.2-5.3
			c0-2,0.8-3.8,2.2-5.3c1.5-1.4,3.2-2.2,5.3-2.2c2.1,0,3.8,0.7,5.2,2.2l0.1,0.1c1.4,1.3,2.1,3,2.2,5V226.2z"/>
		<path d="M199.1,207.2v37.4h11.1v-37.4c-1.6,1-3.5,1.6-5.6,1.6C202.6,208.8,200.7,208.2,199.1,207.2z"/>
		<path d="M144.3,208.8c-2.3-1-4.8-1.5-7.4-1.5c-1.3,0-2.6,0.1-3.7,0.3c-3.6,0.7-6.8,2.4-9.5,5.2c-0.6,0.6-1.2,1.2-1.8,1.9
			c-0.1,0.2-0.3,0.4-0.4,0.6c-2.2,3.1-3.4,6.6-3.4,10.6c0,1.4,0.2,2.7,0.5,4c0.5,2.5,1.5,4.7,2.9,6.7c0.6,0.8,1.3,1.7,2.2,2.5v0.1
			c2.1,2.1,4.5,3.6,7.1,4.5c0.4,0.1,0.8,0.3,1.3,0.3c0.3,0.1,0.8,0.1,1.1,0.3c0.6,0.1,1.3,0.2,2,0.2c0.5,0.1,0.9,0.1,1.4,0.1
			c0.1,0,0.2,0,0.4,0c0.6,0,1.1-0.1,1.7-0.1c1.1-0.1,2.1-0.3,3.1-0.5c1.8-0.4,3.4-1.1,4.8-2c2.7,1.5,5.7,2.4,9,2.6v-37.3h-11.2
			V208.8z M144.3,226.2c-0.1,2-0.8,3.6-2.2,5l-0.1,0.1c-1.4,1.5-3.1,2.2-5.1,2.2c-1.4,0-2.7-0.3-3.7-1c-0.6-0.3-1.1-0.8-1.5-1.2
			v-0.1c-1.5-1.4-2.2-3.2-2.2-5.3c0-2,0.8-3.8,2.2-5.3c0.5-0.5,1-0.8,1.5-1.2c1-0.6,2.3-1,3.7-1c2,0,3.7,0.7,5.1,2.2l0.1,0.1
			c1.4,1.3,2.1,3,2.2,5V226.2z"/>
		<path d="M72.7,209.3c-2.4-1.4-5.3-2.1-8.3-2.2v37.5h11.1v-21.7c0-1.3,0.6-2.4,1.5-3.1c1.9-1.1,4.7-1.7,8.5-1.7h0.3v-11.1h-0.2
			C80.3,206.9,76,207.6,72.7,209.3z"/>
		<path d="M33.5,191.4l-20.8,53.2h11.9l4.1-10.3H48l4.1,10.3h11.9l-20.9-53.2H33.5z M33,223.1l5.3-13.5l5.3,13.5H33z"/>
		<polygon points="122.8,207.3 122.8,207.2 108.7,207.2 99.7,218.9 99.7,195.2 88.6,191.1 88.6,244.6 99.7,244.6 99.7,232.6 
			109,244.6 123.2,244.6 108.5,225.7 		"/>
	</g>
</g>
</svg>
